<?xml version="1.0" encoding="UTF-8" standalone="no"?><svg xmlns="http://www.w3.org/2000/svg" xmlns:xlink="http://www.w3.org/1999/xlink" clip-rule="evenodd" stroke-miterlimit="10" viewBox="0 0 1680 1050"><desc>SVG generated by Keynote</desc><defs><linearGradient id="gradSh1.25" x1="0.0" y1="0.0" x2="100.0" y2="0.0" gradientUnits="userSpaceOnUse" gradientTransform="matrix(0.00, -9.40, -15.23, 0.00, 840.5, 995.0)"><stop offset="0.00000" stop-color="#FFFFFF"></stop><stop offset="0.01246" stop-color="#FEFEFE"></stop><stop offset="1.00000" stop-color="#D6D6D6"></stop></linearGradient></defs><g transform="matrix(1.00, 0.00, -0.00, -1.00, 0.0, 1050.0)"><path d="M 0.0 1050.0 L 1680.0 1050.0 L 1680.0 0.0 L 0.0 0.0 Z M 0.0 1050.0 " fill="#D3CCC3"></path><image xlink:href="../../8109EDB8-06C5-4C2E-86C8-B44BC6D319A9/assets/AA6AEDD8890ABBBCEE2D161D333D80F6.png" width="1549.00" height="966.00" transform="matrix(1.00, 0.00, -0.00, -1.00, 66.0, 1005.0)" opacity="0.60"></image><g><clipPath id="clip0x7fca116f62e0"><path d="M 80.0 71.0 L 80.0 979.0 C 80.0 987.3 86.7 994.0 95.0 994.0 L 1586.0 994.0 C 1594.3 994.0 1601.0 987.3 1601.0 979.0 L 1601.0 71.0 C 1601.0 62.7 1594.3 56.0 1586.0 56.0 L 95.0 56.0 C 86.7 56.0 80.0 62.7 80.0 71.0 Z M 80.0 71.0 "></path></clipPath><g clip-path="url(#clip0x7fca116f62e0)"><path d="M 80.0 71.0 L 80.0 979.0 C 80.0 987.3 86.7 994.0 95.0 994.0 L 1586.0 994.0 C 1594.3 994.0 1601.0 987.3 1601.0 979.0 L 1601.0 71.0 C 1601.0 62.7 1594.3 56.0 1586.0 56.0 L 95.0 56.0 C 86.7 56.0 80.0 62.7 80.0 71.0 Z M 80.0 71.0 " fill="url(#gradSh1.25)"></path></g></g><path d="M 1601.0 815.0 L 1632.0 815.0 L 1601.0 748.0 Z M 1601.0 815.0 " fill="#054009"></path><image xlink:href="../../8109EDB8-06C5-4C2E-86C8-B44BC6D319A9/assets/BAF4D404B80D4D5427E0C174CBFB1606.png" width="88.00" height="127.00" transform="matrix(1.00, 0.00, -0.00, -1.00, 1550.1, 932.2)" opacity="0.32"></image><path d="M 1553.0 815.3 L 1553.0 927.7 C 1553.0 929.5 1554.5 931.0 1556.3 931.0 L 1629.7 931.0 C 1631.5 931.0 1633.0 929.5 1633.0 927.7 L 1633.0 815.3 C 1633.0 813.5 1631.5 812.0 1629.7 812.0 L 1556.3 812.0 C 1554.5 812.0 1553.0 813.5 1553.0 815.3 Z M 1553.0 815.3 " fill="#0B5C18"></path><text xml:space="preserve" font-family="BankGothic-Medium,Bank Gothic" font-size="24.0" fill="#FFFFFF" transform="matrix(1.00, 0.00, -0.00, -1.00, 1585.0, 902.2)">D</text><text xml:space="preserve" font-family="BankGothic-Medium,Bank Gothic" font-size="24.0" fill="#FFFFFF" transform="matrix(1.00, 0.00, -0.00, -1.00, 1605.3, 902.2)"> </text><text xml:space="preserve" font-family="BankGothic-Medium,Bank Gothic" font-size="24.0" fill="#FFFFFF" transform="matrix(1.00, 0.00, -0.00, -1.00, 1585.0, 877.2)">W</text><text xml:space="preserve" font-family="BankGothic-Medium,Bank Gothic" font-size="24.0" fill="#FFFFFF" transform="matrix(1.00, 0.00, -0.00, -1.00, 1607.2, 877.2)"> </text><text xml:space="preserve" font-family="BankGothic-Medium,Bank Gothic" font-size="24.0" fill="#FFFFFF" transform="matrix(1.00, 0.00, -0.00, -1.00, 1585.0, 852.2)">D</text><text xml:space="preserve" font-family="BankGothic-Medium,Bank Gothic" font-size="24.0" fill="#FFFFFF" transform="matrix(1.00, 0.00, -0.00, -1.00, 1605.3, 852.2)"> </text><text xml:space="preserve" font-family="BankGothic-Medium,Bank Gothic" font-size="24.0" fill="#FFFFFF" transform="matrix(1.00, 0.00, -0.00, -1.00, 1585.0, 827.2)">C</text><text xml:space="preserve" font-family="BankGothic-Medium,Bank Gothic" font-size="114.0" fill="#05510A" transform="matrix(1.00, 0.00, -0.00, -1.00, 244.5, 551.9)">N</text><text xml:space="preserve" font-family="BankGothic-Medium,Bank Gothic" font-size="114.0" fill="#05510A" transform="matrix(1.00, 0.00, -0.00, -1.00, 343.6, 551.9)">o</text><text xml:space="preserve" font-family="BankGothic-Medium,Bank Gothic" font-size="114.0" fill="#05510A" transform="matrix(1.00, 0.00, -0.00, -1.00, 425.1, 551.9)">w</text><text xml:space="preserve" font-family="BankGothic-Medium,Bank Gothic" font-size="114.0" fill="#05510A" transform="matrix(1.00, 0.00, -0.00, -1.00, 515.0, 551.9)">,</text><text xml:space="preserve" font-family="BankGothic-Medium,Bank Gothic" font-size="114.0" fill="#05510A" transform="matrix(1.00, 0.00, -0.00, -1.00, 552.8, 551.9)"> </text><text xml:space="preserve" font-family="BankGothic-Medium,Bank Gothic" font-size="114.0" fill="#05510A" transform="matrix(1.00, 0.00, -0.00, -1.00, 596.9, 551.9)">l</text><text xml:space="preserve" font-family="BankGothic-Medium,Bank Gothic" font-size="114.0" fill="#05510A" transform="matrix(1.00, 0.00, -0.00, -1.00, 659.8, 551.9)">e</text><text xml:space="preserve" font-family="BankGothic-Medium,Bank Gothic" font-size="114.0" fill="#05510A" transform="matrix(1.00, 0.00, -0.00, -1.00, 729.1, 551.9)">t</text><text xml:space="preserve" font-family="BankGothic-Medium,Bank Gothic" font-size="114.0" fill="#05510A" transform="matrix(1.00, 0.00, -0.00, -1.00, 796.4, 551.9)">’</text><text xml:space="preserve" font-family="BankGothic-Medium,Bank Gothic" font-size="114.0" fill="#05510A" transform="matrix(1.00, 0.00, -0.00, -1.00, 834.1, 551.9)">s</text><text xml:space="preserve" font-family="BankGothic-Medium,Bank Gothic" font-size="114.0" fill="#05510A" transform="matrix(1.00, 0.00, -0.00, -1.00, 909.7, 551.9)"> </text><text xml:space="preserve" font-family="BankGothic-Medium,Bank Gothic" font-size="114.0" fill="#05510A" transform="matrix(1.00, 0.00, -0.00, -1.00, 953.8, 551.9)">l</text><text xml:space="preserve" font-family="BankGothic-Medium,Bank Gothic" font-size="114.0" fill="#05510A" transform="matrix(1.00, 0.00, -0.00, -1.00, 1016.8, 551.9)">o</text><text xml:space="preserve" font-family="BankGothic-Medium,Bank Gothic" font-size="114.0" fill="#05510A" transform="matrix(1.00, 0.00, -0.00, -1.00, 1098.3, 551.9)">o</text><text xml:space="preserve" font-family="BankGothic-Medium,Bank Gothic" font-size="114.0" fill="#05510A" transform="matrix(1.00, 0.00, -0.00, -1.00, 1179.8, 551.9)">k</text><text xml:space="preserve" font-family="BankGothic-Medium,Bank Gothic" font-size="114.0" fill="#05510A" transform="matrix(1.00, 0.00, -0.00, -1.00, 1250.5, 551.9)"> </text><text xml:space="preserve" font-family="BankGothic-Medium,Bank Gothic" font-size="114.0" fill="#05510A" transform="matrix(1.00, 0.00, -0.00, -1.00, 1294.6, 551.9)">a</text><text xml:space="preserve" font-family="BankGothic-Medium,Bank Gothic" font-size="114.0" fill="#05510A" transform="matrix(1.00, 0.00, -0.00, -1.00, 1368.2, 551.9)">t</text><text xml:space="preserve" font-family="BankGothic-Medium,Bank Gothic" font-size="114.0" fill="#05510A" transform="matrix(1.00, 0.00, -0.00, -1.00, 1435.5, 551.9)"> </text><text xml:space="preserve" font-family="BankGothic-Medium,Bank Gothic" font-size="114.0" fill="#05510A" transform="matrix(1.00, 0.00, -0.00, -1.00, 487.5, 433.9)">s</text><text xml:space="preserve" font-family="BankGothic-Medium,Bank Gothic" font-size="114.0" fill="#05510A" transform="matrix(1.00, 0.00, -0.00, -1.00, 563.0, 433.9)">o</text><text xml:space="preserve" font-family="BankGothic-Medium,Bank Gothic" font-size="114.0" fill="#05510A" transform="matrix(1.00, 0.00, -0.00, -1.00, 644.5, 433.9)">m</text><text xml:space="preserve" font-family="BankGothic-Medium,Bank Gothic" font-size="114.0" fill="#05510A" transform="matrix(1.00, 0.00, -0.00, -1.00, 732.0, 433.9)">e</text><text xml:space="preserve" font-family="BankGothic-Medium,Bank Gothic" font-size="114.0" fill="#05510A" transform="matrix(1.00, 0.00, -0.00, -1.00, 801.3, 433.9)"> </text><text xml:space="preserve" font-family="BankGothic-Medium,Bank Gothic" font-size="114.0" fill="#05510A" transform="matrix(1.00, 0.00, -0.00, -1.00, 845.4, 433.9)">c</text><text xml:space="preserve" font-family="BankGothic-Medium,Bank Gothic" font-size="114.0" fill="#05510A" transform="matrix(1.00, 0.00, -0.00, -1.00, 918.8, 433.9)">o</text><text xml:space="preserve" font-family="BankGothic-Medium,Bank Gothic" font-size="114.0" fill="#05510A" transform="matrix(1.00, 0.00, -0.00, -1.00, 1000.3, 433.9)">d</text><text xml:space="preserve" font-family="BankGothic-Medium,Bank Gothic" font-size="114.0" fill="#05510A" transform="matrix(1.00, 0.00, -0.00, -1.00, 1079.5, 433.9)">e</text><text xml:space="preserve" font-family="BankGothic-Medium,Bank Gothic" font-size="114.0" fill="#05510A" transform="matrix(1.00, 0.00, -0.00, -1.00, 1148.8, 433.9)">!</text><g><clipPath id="clip0x7fca114cc7f0"><path d="M 486.5 419.5 L 1148.8 419.5 L 1148.8 429.4 L 486.5 429.4 Z M 486.5 419.5 "></path></clipPath><g clip-path="url(#clip0x7fca114cc7f0)"><path d="M 323.5 305.6 L 984.8 305.6 " fill="none" stroke="#05510A" stroke-width="7.98" transform="matrix(1.00, 0.00, 0.00, -1.00, 164.0, 730.0)"></path></g></g></g></svg>