<?xml version="1.0" encoding="UTF-8" standalone="no"?><svg xmlns="http://www.w3.org/2000/svg" xmlns:xlink="http://www.w3.org/1999/xlink" clip-rule="evenodd" stroke-miterlimit="10" viewBox="0 0 1680 1050"><desc>SVG generated by Keynote</desc><defs><linearGradient id="gradSh1.14" x1="0.0" y1="0.0" x2="100.0" y2="0.0" gradientUnits="userSpaceOnUse" gradientTransform="matrix(0.00, -9.40, -15.23, 0.00, 839.5, 995.0)"><stop offset="0.00000" stop-color="#FFFFFF"></stop><stop offset="0.01246" stop-color="#FEFEFE"></stop><stop offset="1.00000" stop-color="#D6D6D6"></stop></linearGradient></defs><g transform="matrix(1.00, 0.00, -0.00, -1.00, 0.0, 1050.0)"><path d="M 0.0 1050.0 L 1680.0 1050.0 L 1680.0 0.0 L 0.0 0.0 Z M 0.0 1050.0 " fill="#D3CCC3"></path><image xlink:href="../../8109EDB8-06C5-4C2E-86C8-B44BC6D319A9/assets/AA6AEDD8890ABBBCEE2D161D333D80F6.png" width="1549.00" height="966.00" transform="matrix(1.00, 0.00, -0.00, -1.00, 65.0, 1005.0)" opacity="0.60"></image><g><clipPath id="clip0x6080094b9620"><path d="M 79.0 71.0 L 79.0 979.0 C 79.0 987.3 85.7 994.0 94.0 994.0 L 1585.0 994.0 C 1593.3 994.0 1600.0 987.3 1600.0 979.0 L 1600.0 71.0 C 1600.0 62.7 1593.3 56.0 1585.0 56.0 L 94.0 56.0 C 85.7 56.0 79.0 62.7 79.0 71.0 Z M 79.0 71.0 "></path></clipPath><g clip-path="url(#clip0x6080094b9620)"><path d="M 79.0 71.0 L 79.0 979.0 C 79.0 987.3 85.7 994.0 94.0 994.0 L 1585.0 994.0 C 1593.3 994.0 1600.0 987.3 1600.0 979.0 L 1600.0 71.0 C 1600.0 62.7 1593.3 56.0 1585.0 56.0 L 94.0 56.0 C 85.7 56.0 79.0 62.7 79.0 71.0 Z M 79.0 71.0 " fill="url(#gradSh1.14)"></path></g></g><path d="M 1600.0 815.0 L 1631.0 815.0 L 1600.0 748.0 Z M 1600.0 815.0 " fill="#054009"></path><image xlink:href="../../8109EDB8-06C5-4C2E-86C8-B44BC6D319A9/assets/BAF4D404B80D4D5427E0C174CBFB1606.png" width="88.00" height="127.00" transform="matrix(1.00, 0.00, -0.00, -1.00, 1548.1, 932.2)" opacity="0.32"></image><path d="M 1551.0 815.3 L 1551.0 927.7 C 1551.0 929.5 1552.5 931.0 1554.3 931.0 L 1627.7 931.0 C 1629.5 931.0 1631.0 929.5 1631.0 927.7 L 1631.0 815.3 C 1631.0 813.5 1629.5 812.0 1627.7 812.0 L 1554.3 812.0 C 1552.5 812.0 1551.0 813.5 1551.0 815.3 Z M 1551.0 815.3 " fill="#0B5C18"></path><text xml:space="preserve" font-family="BankGothic-Medium,Bank Gothic" font-size="24.0" fill="#FFFFFF" transform="matrix(1.00, 0.00, -0.00, -1.00, 1582.5, 901.4)">D</text><text xml:space="preserve" font-family="BankGothic-Medium,Bank Gothic" font-size="24.0" fill="#FFFFFF" transform="matrix(1.00, 0.00, -0.00, -1.00, 1602.9, 901.4)"> </text><text xml:space="preserve" font-family="BankGothic-Medium,Bank Gothic" font-size="24.0" fill="#FFFFFF" transform="matrix(1.00, 0.00, -0.00, -1.00, 1582.5, 876.4)">W</text><text xml:space="preserve" font-family="BankGothic-Medium,Bank Gothic" font-size="24.0" fill="#FFFFFF" transform="matrix(1.00, 0.00, -0.00, -1.00, 1604.8, 876.4)"> </text><text xml:space="preserve" font-family="BankGothic-Medium,Bank Gothic" font-size="24.0" fill="#FFFFFF" transform="matrix(1.00, 0.00, -0.00, -1.00, 1582.5, 851.4)">D</text><text xml:space="preserve" font-family="BankGothic-Medium,Bank Gothic" font-size="24.0" fill="#FFFFFF" transform="matrix(1.00, 0.00, -0.00, -1.00, 1602.9, 851.4)"> </text><text xml:space="preserve" font-family="BankGothic-Medium,Bank Gothic" font-size="24.0" fill="#FFFFFF" transform="matrix(1.00, 0.00, -0.00, -1.00, 1582.5, 826.4)">C</text><text xml:space="preserve" font-family="BankGothic-Medium,Bank Gothic" font-size="86.0" fill="#05510A" transform="matrix(1.00, 0.00, -0.00, -1.00, 227.1, 816.3)">S</text><text xml:space="preserve" font-family="BankGothic-Medium,Bank Gothic" font-size="86.0" fill="#05510A" transform="matrix(1.00, 0.00, -0.00, -1.00, 296.7, 816.3)">Q</text><text xml:space="preserve" font-family="BankGothic-Medium,Bank Gothic" font-size="86.0" fill="#05510A" transform="matrix(1.00, 0.00, -0.00, -1.00, 372.2, 816.3)">L</text><text xml:space="preserve" font-family="BankGothic-Medium,Bank Gothic" font-size="86.0" fill="#05510A" transform="matrix(1.00, 0.00, -0.00, -1.00, 430.9, 816.3)"> </text><text xml:space="preserve" font-family="BankGothic-Medium,Bank Gothic" font-size="86.0" fill="#05510A" transform="matrix(1.00, 0.00, -0.00, -1.00, 464.2, 816.3)">B</text><text xml:space="preserve" font-family="BankGothic-Medium,Bank Gothic" font-size="86.0" fill="#05510A" transform="matrix(1.00, 0.00, -0.00, -1.00, 532.5, 816.3)">e</text><text xml:space="preserve" font-family="BankGothic-Medium,Bank Gothic" font-size="86.0" fill="#05510A" transform="matrix(1.00, 0.00, -0.00, -1.00, 584.8, 816.3)">g</text><text xml:space="preserve" font-family="BankGothic-Medium,Bank Gothic" font-size="86.0" fill="#05510A" transform="matrix(1.00, 0.00, -0.00, -1.00, 644.3, 816.3)">i</text><text xml:space="preserve" font-family="BankGothic-Medium,Bank Gothic" font-size="86.0" fill="#05510A" transform="matrix(1.00, 0.00, -0.00, -1.00, 669.3, 816.3)">n</text><text xml:space="preserve" font-family="BankGothic-Medium,Bank Gothic" font-size="86.0" fill="#05510A" transform="matrix(1.00, 0.00, -0.00, -1.00, 730.6, 816.3)">n</text><text xml:space="preserve" font-family="BankGothic-Medium,Bank Gothic" font-size="86.0" fill="#05510A" transform="matrix(1.00, 0.00, -0.00, -1.00, 791.8, 816.3)">e</text><text xml:space="preserve" font-family="BankGothic-Medium,Bank Gothic" font-size="86.0" fill="#05510A" transform="matrix(1.00, 0.00, -0.00, -1.00, 844.1, 816.3)">r</text><text xml:space="preserve" font-family="BankGothic-Medium,Bank Gothic" font-size="86.0" fill="#05510A" transform="matrix(1.00, 0.00, -0.00, -1.00, 900.0, 816.3)"> </text><text xml:space="preserve" font-family="BankGothic-Medium,Bank Gothic" font-size="86.0" fill="#05510A" transform="matrix(1.00, 0.00, -0.00, -1.00, 933.3, 816.3)">R</text><text xml:space="preserve" font-family="BankGothic-Medium,Bank Gothic" font-size="86.0" fill="#05510A" transform="matrix(1.00, 0.00, -0.00, -1.00, 1002.2, 816.3)">e</text><text xml:space="preserve" font-family="BankGothic-Medium,Bank Gothic" font-size="86.0" fill="#05510A" transform="matrix(1.00, 0.00, -0.00, -1.00, 1054.5, 816.3)">s</text><text xml:space="preserve" font-family="BankGothic-Medium,Bank Gothic" font-size="86.0" fill="#05510A" transform="matrix(1.00, 0.00, -0.00, -1.00, 1111.5, 816.3)">o</text><text xml:space="preserve" font-family="BankGothic-Medium,Bank Gothic" font-size="86.0" fill="#05510A" transform="matrix(1.00, 0.00, -0.00, -1.00, 1173.0, 816.3)">u</text><text xml:space="preserve" font-family="BankGothic-Medium,Bank Gothic" font-size="86.0" fill="#05510A" transform="matrix(1.00, 0.00, -0.00, -1.00, 1232.3, 816.3)">r</text><text xml:space="preserve" font-family="BankGothic-Medium,Bank Gothic" font-size="86.0" fill="#05510A" transform="matrix(1.00, 0.00, -0.00, -1.00, 1288.2, 816.3)">c</text><text xml:space="preserve" font-family="BankGothic-Medium,Bank Gothic" font-size="86.0" fill="#05510A" transform="matrix(1.00, 0.00, -0.00, -1.00, 1343.6, 816.3)">e</text><text xml:space="preserve" font-family="BankGothic-Medium,Bank Gothic" font-size="86.0" fill="#05510A" transform="matrix(1.00, 0.00, -0.00, -1.00, 1395.9, 816.3)">s</text><text xml:space="preserve" font-family="BankGothic-Light,Bank Gothic" font-size="81.2" fill="#C7C0B7" transform="matrix(1.00, 0.00, -0.00, -1.00, 193.0, 680.6)">•</text><text xml:space="preserve" font-family="BankGothic-Light,Bank Gothic" font-size="56.0" fill="#504460" transform="matrix(1.00, 0.00, -0.00, -1.00, 240.9, 692.6)">B</text><text xml:space="preserve" font-family="BankGothic-Light,Bank Gothic" font-size="56.0" fill="#504460" transform="matrix(1.00, 0.00, -0.00, -1.00, 283.8, 692.6)">a</text><text xml:space="preserve" font-family="BankGothic-Light,Bank Gothic" font-size="56.0" fill="#504460" transform="matrix(1.00, 0.00, -0.00, -1.00, 318.9, 692.6)">s</text><text xml:space="preserve" font-family="BankGothic-Light,Bank Gothic" font-size="56.0" fill="#504460" transform="matrix(1.00, 0.00, -0.00, -1.00, 354.6, 692.6)">i</text><text xml:space="preserve" font-family="BankGothic-Light,Bank Gothic" font-size="56.0" fill="#504460" transform="matrix(1.00, 0.00, -0.00, -1.00, 369.8, 692.6)">c</text><text xml:space="preserve" font-family="BankGothic-Light,Bank Gothic" font-size="56.0" fill="#504460" transform="matrix(1.00, 0.00, -0.00, -1.00, 404.3, 692.6)"> </text><text xml:space="preserve" font-family="BankGothic-Light,Bank Gothic" font-size="56.0" fill="#504460" transform="matrix(1.00, 0.00, -0.00, -1.00, 425.3, 692.6)">S</text><text xml:space="preserve" font-family="BankGothic-Light,Bank Gothic" font-size="56.0" fill="#504460" transform="matrix(1.00, 0.00, -0.00, -1.00, 469.0, 692.6)">Q</text><text xml:space="preserve" font-family="BankGothic-Light,Bank Gothic" font-size="56.0" fill="#504460" transform="matrix(1.00, 0.00, -0.00, -1.00, 516.8, 692.6)">L</text><text xml:space="preserve" font-family="BankGothic-Light,Bank Gothic" font-size="56.0" fill="#504460" transform="matrix(1.00, 0.00, -0.00, -1.00, 553.3, 692.6)"> </text><text xml:space="preserve" font-family="BankGothic-Light,Bank Gothic" font-size="56.0" fill="#504460" transform="matrix(1.00, 0.00, -0.00, -1.00, 574.3, 692.6)">C</text><text xml:space="preserve" font-family="BankGothic-Light,Bank Gothic" font-size="56.0" fill="#504460" transform="matrix(1.00, 0.00, -0.00, -1.00, 616.3, 692.6)">o</text><text xml:space="preserve" font-family="BankGothic-Light,Bank Gothic" font-size="56.0" fill="#504460" transform="matrix(1.00, 0.00, -0.00, -1.00, 654.9, 692.6)">m</text><text xml:space="preserve" font-family="BankGothic-Light,Bank Gothic" font-size="56.0" fill="#504460" transform="matrix(1.00, 0.00, -0.00, -1.00, 696.5, 692.6)">m</text><text xml:space="preserve" font-family="BankGothic-Light,Bank Gothic" font-size="56.0" fill="#504460" transform="matrix(1.00, 0.00, -0.00, -1.00, 738.0, 692.6)">a</text><text xml:space="preserve" font-family="BankGothic-Light,Bank Gothic" font-size="56.0" fill="#504460" transform="matrix(1.00, 0.00, -0.00, -1.00, 773.1, 692.6)">n</text><text xml:space="preserve" font-family="BankGothic-Light,Bank Gothic" font-size="56.0" fill="#504460" transform="matrix(1.00, 0.00, -0.00, -1.00, 811.5, 692.6)">d</text><text xml:space="preserve" font-family="BankGothic-Light,Bank Gothic" font-size="56.0" fill="#504460" transform="matrix(1.00, 0.00, -0.00, -1.00, 852.4, 692.6)">s</text><text xml:space="preserve" font-family="BankGothic-Light,Bank Gothic" font-size="56.0" fill="#504460" transform="matrix(1.00, 0.00, -0.00, -1.00, 888.0, 692.6)"> </text><text xml:space="preserve" font-family="BankGothic-Light,Bank Gothic" font-size="56.0" fill="#504460" transform="matrix(1.00, 0.00, -0.00, -1.00, 909.0, 692.6)">R</text><text xml:space="preserve" font-family="BankGothic-Light,Bank Gothic" font-size="56.0" fill="#504460" transform="matrix(1.00, 0.00, -0.00, -1.00, 951.7, 692.6)">e</text><text xml:space="preserve" font-family="BankGothic-Light,Bank Gothic" font-size="56.0" fill="#504460" transform="matrix(1.00, 0.00, -0.00, -1.00, 984.2, 692.6)">f</text><text xml:space="preserve" font-family="BankGothic-Light,Bank Gothic" font-size="56.0" fill="#504460" transform="matrix(1.00, 0.00, -0.00, -1.00, 1014.6, 692.6)">e</text><text xml:space="preserve" font-family="BankGothic-Light,Bank Gothic" font-size="56.0" fill="#504460" transform="matrix(1.00, 0.00, -0.00, -1.00, 1047.1, 692.6)">r</text><text xml:space="preserve" font-family="BankGothic-Light,Bank Gothic" font-size="56.0" fill="#504460" transform="matrix(1.00, 0.00, -0.00, -1.00, 1081.5, 692.6)">e</text><text xml:space="preserve" font-family="BankGothic-Light,Bank Gothic" font-size="56.0" fill="#504460" transform="matrix(1.00, 0.00, -0.00, -1.00, 1114.0, 692.6)">n</text><text xml:space="preserve" font-family="BankGothic-Light,Bank Gothic" font-size="56.0" fill="#504460" transform="matrix(1.00, 0.00, -0.00, -1.00, 1152.4, 692.6)">c</text><text xml:space="preserve" font-family="BankGothic-Light,Bank Gothic" font-size="56.0" fill="#504460" transform="matrix(1.00, 0.00, -0.00, -1.00, 1186.9, 692.6)">e</text><text xml:space="preserve" font-family="BankGothic-Light,Bank Gothic" font-size="56.0" fill="#504460" transform="matrix(1.00, 0.00, -0.00, -1.00, 1219.5, 692.6)">:</text><text xml:space="preserve" font-family="LucidaGrande,Lucida Grande" font-size="56.0" fill="#504460" transform="matrix(1.00, 0.00, -0.00, -1.00, 1240.4, 692.6)"> </text><text xml:space="preserve" font-family="BankGothic-Light,Bank Gothic" font-size="56.0" fill="#504460" transform="matrix(1.00, 0.00, -0.00, -1.00, 237.0, 635.6)">h</text><text xml:space="preserve" font-family="BankGothic-Light,Bank Gothic" font-size="56.0" fill="#504460" transform="matrix(1.00, 0.00, -0.00, -1.00, 275.9, 635.6)">t</text><text xml:space="preserve" font-family="BankGothic-Light,Bank Gothic" font-size="56.0" fill="#504460" transform="matrix(1.00, 0.00, -0.00, -1.00, 305.3, 635.6)">t</text><text xml:space="preserve" font-family="BankGothic-Light,Bank Gothic" font-size="56.0" fill="#504460" transform="matrix(1.00, 0.00, -0.00, -1.00, 334.7, 635.6)">p</text><text xml:space="preserve" font-family="BankGothic-Light,Bank Gothic" font-size="56.0" fill="#504460" transform="matrix(1.00, 0.00, -0.00, -1.00, 368.6, 635.6)">:</text><text xml:space="preserve" font-family="BankGothic-Light,Bank Gothic" font-size="56.0" fill="#504460" transform="matrix(1.00, 0.00, -0.00, -1.00, 389.5, 635.6)">/</text><text xml:space="preserve" font-family="BankGothic-Light,Bank Gothic" font-size="56.0" fill="#504460" transform="matrix(1.00, 0.00, -0.00, -1.00, 409.1, 635.6)">/</text><text xml:space="preserve" font-family="BankGothic-Light,Bank Gothic" font-size="56.0" fill="#504460" transform="matrix(1.00, 0.00, -0.00, -1.00, 428.7, 635.6)">w</text><text xml:space="preserve" font-family="BankGothic-Light,Bank Gothic" font-size="56.0" fill="#504460" transform="matrix(1.00, 0.00, -0.00, -1.00, 470.0, 635.6)">w</text><text xml:space="preserve" font-family="BankGothic-Light,Bank Gothic" font-size="56.0" fill="#504460" transform="matrix(1.00, 0.00, -0.00, -1.00, 511.2, 635.6)">w</text><text xml:space="preserve" font-family="BankGothic-Light,Bank Gothic" font-size="56.0" fill="#504460" transform="matrix(1.00, 0.00, -0.00, -1.00, 552.4, 635.6)">.</text><text xml:space="preserve" font-family="BankGothic-Light,Bank Gothic" font-size="56.0" fill="#504460" transform="matrix(1.00, 0.00, -0.00, -1.00, 573.3, 635.6)">c</text><text xml:space="preserve" font-family="BankGothic-Light,Bank Gothic" font-size="56.0" fill="#504460" transform="matrix(1.00, 0.00, -0.00, -1.00, 607.8, 635.6)">s</text><text xml:space="preserve" font-family="BankGothic-Light,Bank Gothic" font-size="56.0" fill="#504460" transform="matrix(1.00, 0.00, -0.00, -1.00, 643.5, 635.6)">.</text><text xml:space="preserve" font-family="BankGothic-Light,Bank Gothic" font-size="56.0" fill="#504460" transform="matrix(1.00, 0.00, -0.00, -1.00, 664.4, 635.6)">u</text><text xml:space="preserve" font-family="BankGothic-Light,Bank Gothic" font-size="56.0" fill="#504460" transform="matrix(1.00, 0.00, -0.00, -1.00, 701.8, 635.6)">t</text><text xml:space="preserve" font-family="BankGothic-Light,Bank Gothic" font-size="56.0" fill="#504460" transform="matrix(1.00, 0.00, -0.00, -1.00, 731.2, 635.6)">e</text><text xml:space="preserve" font-family="BankGothic-Light,Bank Gothic" font-size="56.0" fill="#504460" transform="matrix(1.00, 0.00, -0.00, -1.00, 763.7, 635.6)">x</text><text xml:space="preserve" font-family="BankGothic-Light,Bank Gothic" font-size="56.0" fill="#504460" transform="matrix(1.00, 0.00, -0.00, -1.00, 796.9, 635.6)">a</text><text xml:space="preserve" font-family="BankGothic-Light,Bank Gothic" font-size="56.0" fill="#504460" transform="matrix(1.00, 0.00, -0.00, -1.00, 832.1, 635.6)">s</text><text xml:space="preserve" font-family="BankGothic-Light,Bank Gothic" font-size="56.0" fill="#504460" transform="matrix(1.00, 0.00, -0.00, -1.00, 867.7, 635.6)">.</text><text xml:space="preserve" font-family="BankGothic-Light,Bank Gothic" font-size="56.0" fill="#504460" transform="matrix(1.00, 0.00, -0.00, -1.00, 888.7, 635.6)">e</text><text xml:space="preserve" font-family="BankGothic-Light,Bank Gothic" font-size="56.0" fill="#504460" transform="matrix(1.00, 0.00, -0.00, -1.00, 921.2, 635.6)">d</text><text xml:space="preserve" font-family="BankGothic-Light,Bank Gothic" font-size="56.0" fill="#504460" transform="matrix(1.00, 0.00, -0.00, -1.00, 962.0, 635.6)">u</text><text xml:space="preserve" font-family="BankGothic-Light,Bank Gothic" font-size="56.0" fill="#504460" transform="matrix(1.00, 0.00, -0.00, -1.00, 999.4, 635.6)">/</text><text xml:space="preserve" font-family="BankGothic-Light,Bank Gothic" font-size="56.0" fill="#504460" transform="matrix(1.00, 0.00, -0.00, -1.00, 1019.0, 635.6)">~</text><text xml:space="preserve" font-family="BankGothic-Light,Bank Gothic" font-size="56.0" fill="#504460" transform="matrix(1.00, 0.00, -0.00, -1.00, 1065.6, 635.6)">m</text><text xml:space="preserve" font-family="BankGothic-Light,Bank Gothic" font-size="56.0" fill="#504460" transform="matrix(1.00, 0.00, -0.00, -1.00, 1107.2, 635.6)">i</text><text xml:space="preserve" font-family="BankGothic-Light,Bank Gothic" font-size="56.0" fill="#504460" transform="matrix(1.00, 0.00, -0.00, -1.00, 1122.4, 635.6)">t</text><text xml:space="preserve" font-family="BankGothic-Light,Bank Gothic" font-size="56.0" fill="#504460" transform="matrix(1.00, 0.00, -0.00, -1.00, 1151.8, 635.6)">r</text><text xml:space="preserve" font-family="BankGothic-Light,Bank Gothic" font-size="56.0" fill="#504460" transform="matrix(1.00, 0.00, -0.00, -1.00, 1186.1, 635.6)">a</text><text xml:space="preserve" font-family="BankGothic-Light,Bank Gothic" font-size="56.0" fill="#504460" transform="matrix(1.00, 0.00, -0.00, -1.00, 1221.3, 635.6)">/</text><g><clipPath id="clip0x6080096bcce0"><path d="M 236.0 629.1 L 1240.9 629.1 L 1240.9 633.9 L 236.0 633.9 Z M 236.0 629.1 "></path></clipPath><g clip-path="url(#clip0x6080096bcce0)"><path d="M 73.0 145.9 L 1076.9 145.9 " fill="none" stroke="#504460" stroke-width="2.80" transform="matrix(1.00, 0.00, 0.00, -1.00, 164.0, 777.4)"></path></g></g><text xml:space="preserve" font-family="BankGothic-Light,Bank Gothic" font-size="56.0" fill="#504460" transform="matrix(1.00, 0.00, -0.00, -1.00, 237.0, 578.6)">c</text><text xml:space="preserve" font-family="BankGothic-Light,Bank Gothic" font-size="56.0" fill="#504460" transform="matrix(1.00, 0.00, -0.00, -1.00, 271.5, 578.6)">s</text><text xml:space="preserve" font-family="BankGothic-Light,Bank Gothic" font-size="56.0" fill="#504460" transform="matrix(1.00, 0.00, -0.00, -1.00, 307.2, 578.6)">F</text><text xml:space="preserve" font-family="BankGothic-Light,Bank Gothic" font-size="56.0" fill="#504460" transform="matrix(1.00, 0.00, -0.00, -1.00, 342.8, 578.6)">a</text><text xml:space="preserve" font-family="BankGothic-Light,Bank Gothic" font-size="56.0" fill="#504460" transform="matrix(1.00, 0.00, -0.00, -1.00, 378.0, 578.6)">l</text><text xml:space="preserve" font-family="BankGothic-Light,Bank Gothic" font-size="56.0" fill="#504460" transform="matrix(1.00, 0.00, -0.00, -1.00, 407.9, 578.6)">l</text><text xml:space="preserve" font-family="BankGothic-Light,Bank Gothic" font-size="56.0" fill="#504460" transform="matrix(1.00, 0.00, -0.00, -1.00, 437.9, 578.6)">2</text><text xml:space="preserve" font-family="BankGothic-Light,Bank Gothic" font-size="56.0" fill="#504460" transform="matrix(1.00, 0.00, -0.00, -1.00, 479.8, 578.6)">0</text><text xml:space="preserve" font-family="BankGothic-Light,Bank Gothic" font-size="56.0" fill="#504460" transform="matrix(1.00, 0.00, -0.00, -1.00, 521.6, 578.6)">1</text><text xml:space="preserve" font-family="BankGothic-Light,Bank Gothic" font-size="56.0" fill="#504460" transform="matrix(1.00, 0.00, -0.00, -1.00, 563.5, 578.6)">3</text><text xml:space="preserve" font-family="BankGothic-Light,Bank Gothic" font-size="56.0" fill="#504460" transform="matrix(1.00, 0.00, -0.00, -1.00, 605.4, 578.6)">/</text><text xml:space="preserve" font-family="BankGothic-Light,Bank Gothic" font-size="56.0" fill="#504460" transform="matrix(1.00, 0.00, -0.00, -1.00, 625.0, 578.6)">c</text><text xml:space="preserve" font-family="BankGothic-Light,Bank Gothic" font-size="56.0" fill="#504460" transform="matrix(1.00, 0.00, -0.00, -1.00, 659.5, 578.6)">s</text><text xml:space="preserve" font-family="BankGothic-Light,Bank Gothic" font-size="56.0" fill="#504460" transform="matrix(1.00, 0.00, -0.00, -1.00, 695.2, 578.6)">3</text><text xml:space="preserve" font-family="BankGothic-Light,Bank Gothic" font-size="56.0" fill="#504460" transform="matrix(1.00, 0.00, -0.00, -1.00, 737.1, 578.6)">2</text><text xml:space="preserve" font-family="BankGothic-Light,Bank Gothic" font-size="56.0" fill="#504460" transform="matrix(1.00, 0.00, -0.00, -1.00, 779.0, 578.6)">9</text><text xml:space="preserve" font-family="BankGothic-Light,Bank Gothic" font-size="56.0" fill="#504460" transform="matrix(1.00, 0.00, -0.00, -1.00, 820.9, 578.6)">/</text><text xml:space="preserve" font-family="BankGothic-Light,Bank Gothic" font-size="56.0" fill="#504460" transform="matrix(1.00, 0.00, -0.00, -1.00, 840.5, 578.6)">l</text><text xml:space="preserve" font-family="BankGothic-Light,Bank Gothic" font-size="56.0" fill="#504460" transform="matrix(1.00, 0.00, -0.00, -1.00, 870.4, 578.6)">e</text><text xml:space="preserve" font-family="BankGothic-Light,Bank Gothic" font-size="56.0" fill="#504460" transform="matrix(1.00, 0.00, -0.00, -1.00, 903.0, 578.6)">c</text><text xml:space="preserve" font-family="BankGothic-Light,Bank Gothic" font-size="56.0" fill="#504460" transform="matrix(1.00, 0.00, -0.00, -1.00, 937.4, 578.6)">t</text><text xml:space="preserve" font-family="BankGothic-Light,Bank Gothic" font-size="56.0" fill="#504460" transform="matrix(1.00, 0.00, -0.00, -1.00, 966.8, 578.6)">u</text><text xml:space="preserve" font-family="BankGothic-Light,Bank Gothic" font-size="56.0" fill="#504460" transform="matrix(1.00, 0.00, -0.00, -1.00, 1004.2, 578.6)">r</text><text xml:space="preserve" font-family="BankGothic-Light,Bank Gothic" font-size="56.0" fill="#504460" transform="matrix(1.00, 0.00, -0.00, -1.00, 1038.5, 578.6)">e</text><text xml:space="preserve" font-family="BankGothic-Light,Bank Gothic" font-size="56.0" fill="#504460" transform="matrix(1.00, 0.00, -0.00, -1.00, 1071.1, 578.6)">s</text><text xml:space="preserve" font-family="BankGothic-Light,Bank Gothic" font-size="56.0" fill="#504460" transform="matrix(1.00, 0.00, -0.00, -1.00, 1106.7, 578.6)">/</text><text xml:space="preserve" font-family="BankGothic-Light,Bank Gothic" font-size="56.0" fill="#504460" transform="matrix(1.00, 0.00, -0.00, -1.00, 1126.3, 578.6)">s</text><text xml:space="preserve" font-family="BankGothic-Light,Bank Gothic" font-size="56.0" fill="#504460" transform="matrix(1.00, 0.00, -0.00, -1.00, 1162.0, 578.6)">q</text><text xml:space="preserve" font-family="BankGothic-Light,Bank Gothic" font-size="56.0" fill="#504460" transform="matrix(1.00, 0.00, -0.00, -1.00, 1200.6, 578.6)">l</text><text xml:space="preserve" font-family="BankGothic-Light,Bank Gothic" font-size="56.0" fill="#504460" transform="matrix(1.00, 0.00, -0.00, -1.00, 1230.6, 578.6)">.</text><text xml:space="preserve" font-family="BankGothic-Light,Bank Gothic" font-size="56.0" fill="#504460" transform="matrix(1.00, 0.00, -0.00, -1.00, 1251.6, 578.6)">h</text><text xml:space="preserve" font-family="BankGothic-Light,Bank Gothic" font-size="56.0" fill="#504460" transform="matrix(1.00, 0.00, -0.00, -1.00, 1290.4, 578.6)">t</text><text xml:space="preserve" font-family="BankGothic-Light,Bank Gothic" font-size="56.0" fill="#504460" transform="matrix(1.00, 0.00, -0.00, -1.00, 1319.8, 578.6)">m</text><text xml:space="preserve" font-family="BankGothic-Light,Bank Gothic" font-size="56.0" fill="#504460" transform="matrix(1.00, 0.00, -0.00, -1.00, 1361.4, 578.6)">l</text><g><clipPath id="clip0x6080096bdc40"><path d="M 236.0 572.1 L 1391.3 572.1 L 1391.3 576.9 L 236.0 576.9 Z M 236.0 572.1 "></path></clipPath><g clip-path="url(#clip0x6080096bdc40)"><path d="M 73.0 202.9 L 1227.3 202.9 " fill="none" stroke="#504460" stroke-width="2.80" transform="matrix(1.00, 0.00, 0.00, -1.00, 164.0, 777.4)"></path></g></g><image xlink:href="../../19618F41-DA1F-4AFF-86DF-F2C9BD9DAB1F/assets/35FE1A039EEA615E7E314FB45176BA16.jpeg" width="128.00" height="169.00" transform="matrix(2.39, 0.00, -0.00, -2.39, 366.8, 516.0)"></image><image xlink:href="../../19618F41-DA1F-4AFF-86DF-F2C9BD9DAB1F/assets/DF282BC13C01D4A8AB7F7294231456D1.jpeg" width="244.00" height="300.00" transform="matrix(1.35, 0.00, -0.00, -1.35, 917.4, 516.0)"></image></g></svg>