<?xml version="1.0" encoding="UTF-8" standalone="no"?><svg xmlns="http://www.w3.org/2000/svg" xmlns:xlink="http://www.w3.org/1999/xlink" clip-rule="evenodd" stroke-miterlimit="10" viewBox="0 0 1680 1050"><desc>SVG generated by Keynote</desc><defs><linearGradient id="gradSh1.12" x1="0.0" y1="0.0" x2="100.0" y2="0.0" gradientUnits="userSpaceOnUse" gradientTransform="matrix(0.00, -9.40, -15.23, 0.00, 839.5, 995.0)"><stop offset="0.00000" stop-color="#FFFFFF"></stop><stop offset="0.01246" stop-color="#FEFEFE"></stop><stop offset="1.00000" stop-color="#D6D6D6"></stop></linearGradient></defs><g transform="matrix(1.00, 0.00, -0.00, -1.00, 0.0, 1050.0)"><path d="M 0.0 1050.0 L 1680.0 1050.0 L 1680.0 0.0 L 0.0 0.0 Z M 0.0 1050.0 " fill="#D3CCC3"></path><image xlink:href="../../8109EDB8-06C5-4C2E-86C8-B44BC6D319A9/assets/AA6AEDD8890ABBBCEE2D161D333D80F6.png" width="1549.00" height="966.00" transform="matrix(1.00, 0.00, -0.00, -1.00, 65.0, 1005.0)" opacity="0.60"></image><g><clipPath id="clip0x7fca132e4d20"><path d="M 79.0 71.0 L 79.0 979.0 C 79.0 987.3 85.7 994.0 94.0 994.0 L 1585.0 994.0 C 1593.3 994.0 1600.0 987.3 1600.0 979.0 L 1600.0 71.0 C 1600.0 62.7 1593.3 56.0 1585.0 56.0 L 94.0 56.0 C 85.7 56.0 79.0 62.7 79.0 71.0 Z M 79.0 71.0 "></path></clipPath><g clip-path="url(#clip0x7fca132e4d20)"><path d="M 79.0 71.0 L 79.0 979.0 C 79.0 987.3 85.7 994.0 94.0 994.0 L 1585.0 994.0 C 1593.3 994.0 1600.0 987.3 1600.0 979.0 L 1600.0 71.0 C 1600.0 62.7 1593.3 56.0 1585.0 56.0 L 94.0 56.0 C 85.7 56.0 79.0 62.7 79.0 71.0 Z M 79.0 71.0 " fill="url(#gradSh1.12)"></path></g></g><path d="M 1600.0 815.0 L 1631.0 815.0 L 1600.0 748.0 Z M 1600.0 815.0 " fill="#054009"></path><image xlink:href="../../8109EDB8-06C5-4C2E-86C8-B44BC6D319A9/assets/BAF4D404B80D4D5427E0C174CBFB1606.png" width="88.00" height="127.00" transform="matrix(1.00, 0.00, -0.00, -1.00, 1548.1, 932.2)" opacity="0.32"></image><path d="M 1551.0 815.3 L 1551.0 927.7 C 1551.0 929.5 1552.5 931.0 1554.3 931.0 L 1627.7 931.0 C 1629.5 931.0 1631.0 929.5 1631.0 927.7 L 1631.0 815.3 C 1631.0 813.5 1629.5 812.0 1627.7 812.0 L 1554.3 812.0 C 1552.5 812.0 1551.0 813.5 1551.0 815.3 Z M 1551.0 815.3 " fill="#0B5C18"></path><text xml:space="preserve" font-family="BankGothic-Medium,Bank Gothic" font-size="24.0" fill="#FFFFFF" transform="matrix(1.00, 0.00, -0.00, -1.00, 1582.5, 901.4)">D</text><text xml:space="preserve" font-family="BankGothic-Medium,Bank Gothic" font-size="24.0" fill="#FFFFFF" transform="matrix(1.00, 0.00, -0.00, -1.00, 1602.9, 901.4)"> </text><text xml:space="preserve" font-family="BankGothic-Medium,Bank Gothic" font-size="24.0" fill="#FFFFFF" transform="matrix(1.00, 0.00, -0.00, -1.00, 1582.5, 876.4)">W</text><text xml:space="preserve" font-family="BankGothic-Medium,Bank Gothic" font-size="24.0" fill="#FFFFFF" transform="matrix(1.00, 0.00, -0.00, -1.00, 1604.8, 876.4)"> </text><text xml:space="preserve" font-family="BankGothic-Medium,Bank Gothic" font-size="24.0" fill="#FFFFFF" transform="matrix(1.00, 0.00, -0.00, -1.00, 1582.5, 851.4)">D</text><text xml:space="preserve" font-family="BankGothic-Medium,Bank Gothic" font-size="24.0" fill="#FFFFFF" transform="matrix(1.00, 0.00, -0.00, -1.00, 1602.9, 851.4)"> </text><text xml:space="preserve" font-family="BankGothic-Medium,Bank Gothic" font-size="24.0" fill="#FFFFFF" transform="matrix(1.00, 0.00, -0.00, -1.00, 1582.5, 826.4)">C</text><text xml:space="preserve" font-family="BankGothic-Medium,Bank Gothic" font-size="86.0" fill="#05510A" transform="matrix(1.00, 0.00, -0.00, -1.00, 245.5, 816.3)">S</text><text xml:space="preserve" font-family="BankGothic-Medium,Bank Gothic" font-size="86.0" fill="#05510A" transform="matrix(1.00, 0.00, -0.00, -1.00, 315.1, 816.3)">Q</text><text xml:space="preserve" font-family="BankGothic-Medium,Bank Gothic" font-size="86.0" fill="#05510A" transform="matrix(1.00, 0.00, -0.00, -1.00, 390.6, 816.3)">L</text><text xml:space="preserve" font-family="BankGothic-Medium,Bank Gothic" font-size="86.0" fill="#05510A" transform="matrix(1.00, 0.00, -0.00, -1.00, 449.3, 816.3)">:</text><text xml:space="preserve" font-family="BankGothic-Medium,Bank Gothic" font-size="86.0" fill="#05510A" transform="matrix(1.00, 0.00, -0.00, -1.00, 477.8, 816.3)"> </text><text xml:space="preserve" font-family="BankGothic-Medium,Bank Gothic" font-size="86.0" fill="#05510A" transform="matrix(1.00, 0.00, -0.00, -1.00, 511.1, 816.3)">W</text><text xml:space="preserve" font-family="BankGothic-Medium,Bank Gothic" font-size="86.0" fill="#05510A" transform="matrix(1.00, 0.00, -0.00, -1.00, 590.7, 816.3)">o</text><text xml:space="preserve" font-family="BankGothic-Medium,Bank Gothic" font-size="86.0" fill="#05510A" transform="matrix(1.00, 0.00, -0.00, -1.00, 652.2, 816.3)">r</text><text xml:space="preserve" font-family="BankGothic-Medium,Bank Gothic" font-size="86.0" fill="#05510A" transform="matrix(1.00, 0.00, -0.00, -1.00, 708.1, 816.3)">k</text><text xml:space="preserve" font-family="BankGothic-Medium,Bank Gothic" font-size="86.0" fill="#05510A" transform="matrix(1.00, 0.00, -0.00, -1.00, 761.4, 816.3)">i</text><text xml:space="preserve" font-family="BankGothic-Medium,Bank Gothic" font-size="86.0" fill="#05510A" transform="matrix(1.00, 0.00, -0.00, -1.00, 786.5, 816.3)">n</text><text xml:space="preserve" font-family="BankGothic-Medium,Bank Gothic" font-size="86.0" fill="#05510A" transform="matrix(1.00, 0.00, -0.00, -1.00, 847.7, 816.3)">g</text><text xml:space="preserve" font-family="BankGothic-Medium,Bank Gothic" font-size="86.0" fill="#05510A" transform="matrix(1.00, 0.00, -0.00, -1.00, 907.2, 816.3)"> </text><text xml:space="preserve" font-family="BankGothic-Medium,Bank Gothic" font-size="86.0" fill="#05510A" transform="matrix(1.00, 0.00, -0.00, -1.00, 940.5, 816.3)">w</text><text xml:space="preserve" font-family="BankGothic-Medium,Bank Gothic" font-size="86.0" fill="#05510A" transform="matrix(1.00, 0.00, -0.00, -1.00, 1008.3, 816.3)">i</text><text xml:space="preserve" font-family="BankGothic-Medium,Bank Gothic" font-size="86.0" fill="#05510A" transform="matrix(1.00, 0.00, -0.00, -1.00, 1033.4, 816.3)">t</text><text xml:space="preserve" font-family="BankGothic-Medium,Bank Gothic" font-size="86.0" fill="#05510A" transform="matrix(1.00, 0.00, -0.00, -1.00, 1084.1, 816.3)">h</text><text xml:space="preserve" font-family="BankGothic-Medium,Bank Gothic" font-size="86.0" fill="#05510A" transform="matrix(1.00, 0.00, -0.00, -1.00, 1145.9, 816.3)"> </text><text xml:space="preserve" font-family="BankGothic-Medium,Bank Gothic" font-size="86.0" fill="#05510A" transform="matrix(1.00, 0.00, -0.00, -1.00, 1179.1, 816.3)">R</text><text xml:space="preserve" font-family="BankGothic-Medium,Bank Gothic" font-size="86.0" fill="#05510A" transform="matrix(1.00, 0.00, -0.00, -1.00, 1248.1, 816.3)">o</text><text xml:space="preserve" font-family="BankGothic-Medium,Bank Gothic" font-size="86.0" fill="#05510A" transform="matrix(1.00, 0.00, -0.00, -1.00, 1309.6, 816.3)">w</text><text xml:space="preserve" font-family="BankGothic-Medium,Bank Gothic" font-size="86.0" fill="#05510A" transform="matrix(1.00, 0.00, -0.00, -1.00, 1377.5, 816.3)">s</text><text xml:space="preserve" font-family="BankGothic-Light,Bank Gothic" font-size="81.2" fill="#C7C0B7" transform="matrix(1.00, 0.00, -0.00, -1.00, 193.0, 567.2)">•</text><text xml:space="preserve" font-family="BankGothic-Light,Bank Gothic" font-size="56.0" fill="#504460" transform="matrix(1.00, 0.00, -0.00, -1.00, 240.9, 579.2)">Q</text><text xml:space="preserve" font-family="BankGothic-Light,Bank Gothic" font-size="56.0" fill="#504460" transform="matrix(1.00, 0.00, -0.00, -1.00, 288.7, 579.2)">u</text><text xml:space="preserve" font-family="BankGothic-Light,Bank Gothic" font-size="56.0" fill="#504460" transform="matrix(1.00, 0.00, -0.00, -1.00, 326.0, 579.2)">e</text><text xml:space="preserve" font-family="BankGothic-Light,Bank Gothic" font-size="56.0" fill="#504460" transform="matrix(1.00, 0.00, -0.00, -1.00, 358.6, 579.2)">r</text><text xml:space="preserve" font-family="BankGothic-Light,Bank Gothic" font-size="56.0" fill="#504460" transform="matrix(1.00, 0.00, -0.00, -1.00, 392.9, 579.2)">y</text><text xml:space="preserve" font-family="BankGothic-Light,Bank Gothic" font-size="56.0" fill="#504460" transform="matrix(1.00, 0.00, -0.00, -1.00, 424.5, 579.2)"> </text><text xml:space="preserve" font-family="BankGothic-Light,Bank Gothic" font-size="56.0" fill="#504460" transform="matrix(1.00, 0.00, -0.00, -1.00, 445.4, 579.2)">L</text><text xml:space="preserve" font-family="BankGothic-Light,Bank Gothic" font-size="56.0" fill="#504460" transform="matrix(1.00, 0.00, -0.00, -1.00, 482.0, 579.2)">a</text><text xml:space="preserve" font-family="BankGothic-Light,Bank Gothic" font-size="56.0" fill="#504460" transform="matrix(1.00, 0.00, -0.00, -1.00, 517.1, 579.2)">n</text><text xml:space="preserve" font-family="BankGothic-Light,Bank Gothic" font-size="56.0" fill="#504460" transform="matrix(1.00, 0.00, -0.00, -1.00, 555.5, 579.2)">g</text><text xml:space="preserve" font-family="BankGothic-Light,Bank Gothic" font-size="56.0" fill="#504460" transform="matrix(1.00, 0.00, -0.00, -1.00, 592.6, 579.2)">u</text><text xml:space="preserve" font-family="BankGothic-Light,Bank Gothic" font-size="56.0" fill="#504460" transform="matrix(1.00, 0.00, -0.00, -1.00, 629.9, 579.2)">a</text><text xml:space="preserve" font-family="BankGothic-Light,Bank Gothic" font-size="56.0" fill="#504460" transform="matrix(1.00, 0.00, -0.00, -1.00, 665.1, 579.2)">g</text><text xml:space="preserve" font-family="BankGothic-Light,Bank Gothic" font-size="56.0" fill="#504460" transform="matrix(1.00, 0.00, -0.00, -1.00, 702.1, 579.2)">e</text><text xml:space="preserve" font-family="BankGothic-Light,Bank Gothic" font-size="56.0" fill="#504460" transform="matrix(1.00, 0.00, -0.00, -1.00, 734.7, 579.2)"> </text><text xml:space="preserve" font-family="BankGothic-Light,Bank Gothic" font-size="56.0" fill="#504460" transform="matrix(1.00, 0.00, -0.00, -1.00, 755.6, 579.2)">(</text><text xml:space="preserve" font-family="BankGothic-Light,Bank Gothic" font-size="56.0" fill="#504460" transform="matrix(1.00, 0.00, -0.00, -1.00, 776.3, 579.2)">R</text><text xml:space="preserve" font-family="BankGothic-Light,Bank Gothic" font-size="56.0" fill="#504460" transform="matrix(1.00, 0.00, -0.00, -1.00, 819.0, 579.2)">e</text><text xml:space="preserve" font-family="BankGothic-Light,Bank Gothic" font-size="56.0" fill="#504460" transform="matrix(1.00, 0.00, -0.00, -1.00, 851.5, 579.2)">c</text><text xml:space="preserve" font-family="BankGothic-Light,Bank Gothic" font-size="56.0" fill="#504460" transform="matrix(1.00, 0.00, -0.00, -1.00, 886.0, 579.2)">o</text><text xml:space="preserve" font-family="BankGothic-Light,Bank Gothic" font-size="56.0" fill="#504460" transform="matrix(1.00, 0.00, -0.00, -1.00, 924.7, 579.2)">r</text><text xml:space="preserve" font-family="BankGothic-Light,Bank Gothic" font-size="56.0" fill="#504460" transform="matrix(1.00, 0.00, -0.00, -1.00, 959.0, 579.2)">d</text><text xml:space="preserve" font-family="BankGothic-Light,Bank Gothic" font-size="56.0" fill="#504460" transform="matrix(1.00, 0.00, -0.00, -1.00, 999.8, 579.2)">s</text><text xml:space="preserve" font-family="BankGothic-Light,Bank Gothic" font-size="56.0" fill="#504460" transform="matrix(1.00, 0.00, -0.00, -1.00, 1035.5, 579.2)">)</text><text xml:space="preserve" font-family="BankGothic-Light,Bank Gothic" font-size="56.0" fill="#504460" transform="matrix(1.00, 0.00, -0.00, -1.00, 1056.2, 579.2)"> </text><text xml:space="preserve" font-family="BankGothic-Light,Bank Gothic" font-size="81.2" fill="#C7C0B7" transform="matrix(1.00, 0.00, -0.00, -1.00, 228.0, 477.2)">•</text><text xml:space="preserve" font-family="BankGothic-Light,Bank Gothic" font-size="56.0" fill="#319443" transform="matrix(1.00, 0.00, -0.00, -1.00, 275.9, 489.2)">S</text><text xml:space="preserve" font-family="BankGothic-Light,Bank Gothic" font-size="56.0" fill="#319443" transform="matrix(1.00, 0.00, -0.00, -1.00, 319.6, 489.2)">E</text><text xml:space="preserve" font-family="BankGothic-Light,Bank Gothic" font-size="56.0" fill="#319443" transform="matrix(1.00, 0.00, -0.00, -1.00, 359.2, 489.2)">L</text><text xml:space="preserve" font-family="BankGothic-Light,Bank Gothic" font-size="56.0" fill="#319443" transform="matrix(1.00, 0.00, -0.00, -1.00, 395.7, 489.2)">E</text><text xml:space="preserve" font-family="BankGothic-Light,Bank Gothic" font-size="56.0" fill="#319443" transform="matrix(1.00, 0.00, -0.00, -1.00, 435.3, 489.2)">C</text><text xml:space="preserve" font-family="BankGothic-Light,Bank Gothic" font-size="56.0" fill="#319443" transform="matrix(1.00, 0.00, -0.00, -1.00, 477.3, 489.2)">T</text><text xml:space="preserve" font-family="BankGothic-Light,Bank Gothic" font-size="56.0" fill="#504460" transform="matrix(1.00, 0.00, -0.00, -1.00, 509.9, 489.2)"> </text><text xml:space="preserve" font-family="BankGothic-Light,Bank Gothic" font-size="56.0" fill="#504460" transform="matrix(1.00, 0.00, -0.00, -1.00, 530.8, 489.2)">…</text><text xml:space="preserve" font-family="BankGothic-Light,Bank Gothic" font-size="56.0" fill="#504460" transform="matrix(1.00, 0.00, -0.00, -1.00, 586.8, 489.2)"> </text><text xml:space="preserve" font-family="BankGothic-Light,Bank Gothic" font-size="56.0" fill="#319443" transform="matrix(1.00, 0.00, -0.00, -1.00, 607.8, 489.2)">F</text><text xml:space="preserve" font-family="BankGothic-Light,Bank Gothic" font-size="56.0" fill="#319443" transform="matrix(1.00, 0.00, -0.00, -1.00, 643.4, 489.2)">R</text><text xml:space="preserve" font-family="BankGothic-Light,Bank Gothic" font-size="56.0" fill="#319443" transform="matrix(1.00, 0.00, -0.00, -1.00, 686.1, 489.2)">O</text><text xml:space="preserve" font-family="BankGothic-Light,Bank Gothic" font-size="56.0" fill="#319443" transform="matrix(1.00, 0.00, -0.00, -1.00, 733.9, 489.2)">M</text><text xml:space="preserve" font-family="BankGothic-Light,Bank Gothic" font-size="56.0" fill="#504460" transform="matrix(1.00, 0.00, -0.00, -1.00, 784.4, 489.2)"> </text><text xml:space="preserve" font-family="BankGothic-Light,Bank Gothic" font-size="56.0" fill="#504460" transform="matrix(1.00, 0.00, -0.00, -1.00, 805.4, 489.2)">…</text><text xml:space="preserve" font-family="BankGothic-Light,Bank Gothic" font-size="56.0" fill="#504460" transform="matrix(1.00, 0.00, -0.00, -1.00, 861.4, 489.2)"> </text><text xml:space="preserve" font-family="BankGothic-Light,Bank Gothic" font-size="81.2" fill="#C7C0B7" transform="matrix(1.00, 0.00, -0.00, -1.00, 228.0, 387.2)">•</text><text xml:space="preserve" font-family="BankGothic-Light,Bank Gothic" font-size="56.0" fill="#319443" transform="matrix(1.00, 0.00, -0.00, -1.00, 275.9, 399.2)">I</text><text xml:space="preserve" font-family="BankGothic-Light,Bank Gothic" font-size="56.0" fill="#319443" transform="matrix(1.00, 0.00, -0.00, -1.00, 295.7, 399.2)">N</text><text xml:space="preserve" font-family="BankGothic-Light,Bank Gothic" font-size="56.0" fill="#319443" transform="matrix(1.00, 0.00, -0.00, -1.00, 342.7, 399.2)">S</text><text xml:space="preserve" font-family="BankGothic-Light,Bank Gothic" font-size="56.0" fill="#319443" transform="matrix(1.00, 0.00, -0.00, -1.00, 386.4, 399.2)">E</text><text xml:space="preserve" font-family="BankGothic-Light,Bank Gothic" font-size="56.0" fill="#319443" transform="matrix(1.00, 0.00, -0.00, -1.00, 425.9, 399.2)">R</text><text xml:space="preserve" font-family="BankGothic-Light,Bank Gothic" font-size="56.0" fill="#319443" transform="matrix(1.00, 0.00, -0.00, -1.00, 468.6, 399.2)">T</text><text xml:space="preserve" font-family="BankGothic-Light,Bank Gothic" font-size="56.0" fill="#504460" transform="matrix(1.00, 0.00, -0.00, -1.00, 501.2, 399.2)"> </text><text xml:space="preserve" font-family="BankGothic-Light,Bank Gothic" font-size="56.0" fill="#319443" transform="matrix(1.00, 0.00, -0.00, -1.00, 522.1, 399.2)">I</text><text xml:space="preserve" font-family="BankGothic-Light,Bank Gothic" font-size="56.0" fill="#319443" transform="matrix(1.00, 0.00, -0.00, -1.00, 542.0, 399.2)">N</text><text xml:space="preserve" font-family="BankGothic-Light,Bank Gothic" font-size="56.0" fill="#319443" transform="matrix(1.00, 0.00, -0.00, -1.00, 588.9, 399.2)">T</text><text xml:space="preserve" font-family="BankGothic-Light,Bank Gothic" font-size="56.0" fill="#319443" transform="matrix(1.00, 0.00, -0.00, -1.00, 621.5, 399.2)">O</text><text xml:space="preserve" font-family="BankGothic-Light,Bank Gothic" font-size="56.0" fill="#504460" transform="matrix(1.00, 0.00, -0.00, -1.00, 669.3, 399.2)"> </text><text xml:space="preserve" font-family="BankGothic-Light,Bank Gothic" font-size="56.0" fill="#504460" transform="matrix(1.00, 0.00, -0.00, -1.00, 690.2, 399.2)">…</text><text xml:space="preserve" font-family="BankGothic-Light,Bank Gothic" font-size="56.0" fill="#504460" transform="matrix(1.00, 0.00, -0.00, -1.00, 746.2, 399.2)"> </text><text xml:space="preserve" font-family="BankGothic-Light,Bank Gothic" font-size="81.2" fill="#C7C0B7" transform="matrix(1.00, 0.00, -0.00, -1.00, 228.0, 297.2)">•</text><text xml:space="preserve" font-family="BankGothic-Light,Bank Gothic" font-size="56.0" fill="#319443" transform="matrix(1.00, 0.00, -0.00, -1.00, 275.9, 309.2)">U</text><text xml:space="preserve" font-family="BankGothic-Light,Bank Gothic" font-size="56.0" fill="#319443" transform="matrix(1.00, 0.00, -0.00, -1.00, 321.6, 309.2)">P</text><text xml:space="preserve" font-family="BankGothic-Light,Bank Gothic" font-size="56.0" fill="#319443" transform="matrix(1.00, 0.00, -0.00, -1.00, 362.8, 309.2)">D</text><text xml:space="preserve" font-family="BankGothic-Light,Bank Gothic" font-size="56.0" fill="#319443" transform="matrix(1.00, 0.00, -0.00, -1.00, 408.1, 309.2)">A</text><text xml:space="preserve" font-family="BankGothic-Light,Bank Gothic" font-size="56.0" fill="#319443" transform="matrix(1.00, 0.00, -0.00, -1.00, 448.8, 309.2)">T</text><text xml:space="preserve" font-family="BankGothic-Light,Bank Gothic" font-size="56.0" fill="#319443" transform="matrix(1.00, 0.00, -0.00, -1.00, 481.4, 309.2)">E</text><text xml:space="preserve" font-family="BankGothic-Light,Bank Gothic" font-size="56.0" fill="#504460" transform="matrix(1.00, 0.00, -0.00, -1.00, 520.9, 309.2)"> </text><text xml:space="preserve" font-family="BankGothic-Light,Bank Gothic" font-size="56.0" fill="#504460" transform="matrix(1.00, 0.00, -0.00, -1.00, 541.9, 309.2)">…</text><text xml:space="preserve" font-family="BankGothic-Light,Bank Gothic" font-size="56.0" fill="#504460" transform="matrix(1.00, 0.00, -0.00, -1.00, 597.9, 309.2)"> </text><text xml:space="preserve" font-family="BankGothic-Light,Bank Gothic" font-size="56.0" fill="#319443" transform="matrix(1.00, 0.00, -0.00, -1.00, 618.8, 309.2)">S</text><text xml:space="preserve" font-family="BankGothic-Light,Bank Gothic" font-size="56.0" fill="#319443" transform="matrix(1.00, 0.00, -0.00, -1.00, 662.5, 309.2)">E</text><text xml:space="preserve" font-family="BankGothic-Light,Bank Gothic" font-size="56.0" fill="#319443" transform="matrix(1.00, 0.00, -0.00, -1.00, 702.1, 309.2)">T</text><text xml:space="preserve" font-family="BankGothic-Light,Bank Gothic" font-size="56.0" fill="#504460" transform="matrix(1.00, 0.00, -0.00, -1.00, 734.7, 309.2)"> </text><text xml:space="preserve" font-family="BankGothic-Light,Bank Gothic" font-size="56.0" fill="#504460" transform="matrix(1.00, 0.00, -0.00, -1.00, 755.6, 309.2)">…</text><text xml:space="preserve" font-family="BankGothic-Light,Bank Gothic" font-size="56.0" fill="#504460" transform="matrix(1.00, 0.00, -0.00, -1.00, 811.6, 309.2)"> </text><text xml:space="preserve" font-family="BankGothic-Light,Bank Gothic" font-size="81.2" fill="#C7C0B7" transform="matrix(1.00, 0.00, -0.00, -1.00, 228.0, 207.2)">•</text><text xml:space="preserve" font-family="BankGothic-Light,Bank Gothic" font-size="56.0" fill="#319443" transform="matrix(1.00, 0.00, -0.00, -1.00, 275.9, 219.2)">D</text><text xml:space="preserve" font-family="BankGothic-Light,Bank Gothic" font-size="56.0" fill="#319443" transform="matrix(1.00, 0.00, -0.00, -1.00, 321.2, 219.2)">E</text><text xml:space="preserve" font-family="BankGothic-Light,Bank Gothic" font-size="56.0" fill="#319443" transform="matrix(1.00, 0.00, -0.00, -1.00, 360.7, 219.2)">L</text><text xml:space="preserve" font-family="BankGothic-Light,Bank Gothic" font-size="56.0" fill="#319443" transform="matrix(1.00, 0.00, -0.00, -1.00, 397.3, 219.2)">E</text><text xml:space="preserve" font-family="BankGothic-Light,Bank Gothic" font-size="56.0" fill="#319443" transform="matrix(1.00, 0.00, -0.00, -1.00, 436.8, 219.2)">T</text><text xml:space="preserve" font-family="BankGothic-Light,Bank Gothic" font-size="56.0" fill="#319443" transform="matrix(1.00, 0.00, -0.00, -1.00, 469.4, 219.2)">E</text><text xml:space="preserve" font-family="BankGothic-Light,Bank Gothic" font-size="56.0" fill="#504460" transform="matrix(1.00, 0.00, -0.00, -1.00, 508.9, 219.2)"> </text><text xml:space="preserve" font-family="BankGothic-Light,Bank Gothic" font-size="56.0" fill="#319443" transform="matrix(1.00, 0.00, -0.00, -1.00, 529.9, 219.2)">F</text><text xml:space="preserve" font-family="BankGothic-Light,Bank Gothic" font-size="56.0" fill="#319443" transform="matrix(1.00, 0.00, -0.00, -1.00, 565.5, 219.2)">R</text><text xml:space="preserve" font-family="BankGothic-Light,Bank Gothic" font-size="56.0" fill="#319443" transform="matrix(1.00, 0.00, -0.00, -1.00, 608.2, 219.2)">O</text><text xml:space="preserve" font-family="BankGothic-Light,Bank Gothic" font-size="56.0" fill="#319443" transform="matrix(1.00, 0.00, -0.00, -1.00, 656.0, 219.2)">M</text><text xml:space="preserve" font-family="BankGothic-Light,Bank Gothic" font-size="56.0" fill="#504460" transform="matrix(1.00, 0.00, -0.00, -1.00, 706.5, 219.2)"> </text><text xml:space="preserve" font-family="BankGothic-Light,Bank Gothic" font-size="56.0" fill="#504460" transform="matrix(1.00, 0.00, -0.00, -1.00, 727.5, 219.2)">…</text></g></svg>